<?xml version="1.0" standalone="no"?>
<!DOCTYPE svg PUBLIC "-//W3C//DTD SVG 20010904//EN"
 "http://www.w3.org/TR/2001/REC-SVG-20010904/DTD/svg10.dtd">
<svg version="1.0" xmlns="http://www.w3.org/2000/svg"
 width="148.000000pt" height="148.000000pt" viewBox="0 0 148.000000 148.000000"
 preserveAspectRatio="xMidYMid meet">

<g transform="translate(0.000000,148.000000) scale(0.100000,-0.100000)"
fill="#000000" stroke="none">
<path d="M760 1462 c-47 -23 -80 -75 -80 -126 0 -44 27 -98 59 -117 19 -12 19
-13 -1 -40 -16 -22 -20 -37 -15 -70 3 -23 12 -49 21 -57 14 -15 18 -13 44 11
15 15 31 27 33 27 3 0 19 -11 35 -25 l29 -25 18 21 c23 28 22 91 -2 120 -18
23 -18 23 5 42 60 47 73 143 27 198 -48 57 -112 72 -173 41z m85 -292 l-25
-25 -25 25 -25 25 50 0 50 0 -25 -25z"/>
<path d="M658 1143 c-9 -10 -36 -62 -61 -115 l-46 -98 -105 0 c-85 0 -107 -3
-114 -16 -5 -8 -19 -21 -33 -27 -42 -21 -38 -92 6 -103 24 -6 25 -8 25 -104 0
-80 3 -99 16 -104 29 -11 189 -7 202 6 8 8 12 46 12 105 0 92 0 93 24 93 15 0
32 11 45 28 l20 27 1 -397 0 -397 26 -20 c34 -26 54 -26 87 0 l27 20 2 237 3
237 28 3 27 3 0 -236 0 -236 25 -24 c13 -14 31 -25 39 -25 29 0 65 23 76 49 7
18 10 148 8 404 -2 207 -1 377 2 377 3 0 22 -40 43 -88 56 -130 71 -152 105
-152 33 0 62 27 62 58 0 12 -41 110 -91 219 -50 109 -98 215 -106 236 -14 35
-48 65 -60 53 -3 -2 -11 -38 -19 -78 -30 -155 -75 -258 -115 -258 -38 0 -88
120 -112 268 -12 74 -22 85 -49 55z m-148 -393 l0 -131 -67 3 -68 3 -3 114
c-1 63 0 121 2 128 4 9 26 13 71 13 l65 0 0 -130z"/>
<path d="M803 1024 c-3 -8 -1 -20 5 -26 15 -15 43 8 35 28 -7 19 -32 18 -40
-2z"/>
<path d="M807 933 c-14 -13 -7 -33 11 -33 24 0 32 8 25 26 -5 15 -25 19 -36 7z"/>
</g>
</svg>
